<svg width="87" height="87" viewBox="0 0 87 87" fill="none" xmlns="http://www.w3.org/2000/svg">
<rect x="0.868164" y="0.611084" width="86.0157" height="86.0157" rx="26.1313" fill="#FFC978" fill-opacity="0.4"/>
<path d="M43.3326 18.0317C38.6779 18.041 34.1262 19.4639 30.232 22.1273C26.3377 24.7906 23.269 28.5794 21.3995 33.0321C19.5301 37.4849 18.9406 42.4093 19.703 47.2058C20.4653 52.0022 22.5465 56.4636 25.6931 60.0465C27.9405 62.591 30.6681 64.6218 33.704 66.0108C36.7399 67.3997 40.0183 68.1168 43.3326 68.1168C46.647 68.1168 49.9254 67.3997 52.9613 66.0108C55.9972 64.6218 58.7248 62.591 60.9721 60.0465C64.1187 56.4636 66.2 52.0022 66.9623 47.2058C67.7246 42.4093 67.1352 37.4849 65.2658 33.0321C63.3963 28.5794 60.3276 24.7906 56.4333 22.1273C52.5391 19.4639 47.9874 18.041 43.3326 18.0317ZM43.3326 63.155C38.3611 63.1471 33.5863 61.1251 30.013 57.5146C31.0979 54.7559 32.9434 52.3963 35.3151 50.7358C37.6867 49.0752 40.4775 48.1886 43.3326 48.1886C46.1878 48.1886 48.9785 49.0752 51.3502 50.7358C53.7219 52.3963 55.5674 54.7559 56.6523 57.5146C53.079 61.1251 48.3042 63.1471 43.3326 63.155ZM38.5328 38.0865C38.5328 37.0949 38.8143 36.1255 39.3417 35.301C39.8691 34.4765 40.6187 33.8339 41.4958 33.4545C42.3729 33.075 43.338 32.9757 44.269 33.1691C45.2001 33.3626 46.0554 33.8401 46.7267 34.5413C47.3979 35.2425 47.8551 36.1358 48.0403 37.1084C48.2255 38.0809 48.1304 39.089 47.7671 40.0052C47.4038 40.9213 46.7886 41.7043 45.9993 42.2552C45.21 42.8061 44.282 43.1002 43.3326 43.1002C42.0596 43.1002 40.8388 42.572 39.9386 41.6317C39.0385 40.6915 38.5328 39.4162 38.5328 38.0865ZM59.9162 53.1276C57.7719 49.2965 54.4717 46.3165 50.5324 44.6544C51.7544 43.2071 52.5506 41.4223 52.8255 39.514C53.1004 37.6057 52.8423 35.6551 52.0822 33.8963C51.3221 32.1375 50.0922 30.6451 48.5403 29.5982C46.9883 28.5514 45.1801 27.9946 43.3326 27.9946C41.4852 27.9946 39.677 28.5514 38.125 29.5982C36.573 30.6451 35.3432 32.1375 34.5831 33.8963C33.823 35.6551 33.5649 37.6057 33.8398 39.514C34.1147 41.4223 34.9109 43.2071 36.1328 44.6544C32.1936 46.3165 28.8934 49.2965 26.7491 53.1276C25.0402 50.087 24.1373 46.626 24.1332 43.1002C24.1332 37.7813 26.156 32.6803 29.7566 28.9193C33.3572 25.1583 38.2406 23.0454 43.3326 23.0454C48.4246 23.0454 53.3081 25.1583 56.9087 28.9193C60.5093 32.6803 62.5321 37.7813 62.5321 43.1002C62.528 46.626 61.625 50.087 59.9162 53.1276Z" fill="#FF9700"/>
</svg>
