<svg width="87" height="87" viewBox="0 0 87 87" fill="none" xmlns="http://www.w3.org/2000/svg">
<rect x="0.949219" y="0.611145" width="86.0157" height="86.0157" rx="26.1313" fill="#E6F0F9"/>
<path d="M36.4699 38.5015H38.7836C39.3973 38.5015 39.9858 38.2606 40.4197 37.8318C40.8536 37.403 41.0974 36.8214 41.0974 36.215C41.0974 35.6086 40.8536 35.027 40.4197 34.5982C39.9858 34.1694 39.3973 33.9285 38.7836 33.9285H36.4699C35.8563 33.9285 35.2678 34.1694 34.8339 34.5982C34.4 35.027 34.1562 35.6086 34.1562 36.215C34.1562 36.8214 34.4 37.403 34.8339 37.8318C35.2678 38.2606 35.8563 38.5015 36.4699 38.5015ZM36.4699 43.0745C35.8563 43.0745 35.2678 43.3154 34.8339 43.7442C34.4 44.173 34.1562 44.7545 34.1562 45.361C34.1562 45.9674 34.4 46.549 34.8339 46.9778C35.2678 47.4066 35.8563 47.6475 36.4699 47.6475H50.3522C50.9658 47.6475 51.5543 47.4066 51.9882 46.9778C52.4221 46.549 52.6659 45.9674 52.6659 45.361C52.6659 44.7545 52.4221 44.173 51.9882 43.7442C51.5543 43.3154 50.9658 43.0745 50.3522 43.0745H36.4699ZM61.9208 36.0778C61.8967 35.8677 61.8501 35.6608 61.7819 35.4604V35.2547C61.6707 35.0196 61.5223 34.8035 61.3423 34.6144L47.4601 20.8955C47.2688 20.7176 47.0501 20.571 46.8122 20.461C46.7432 20.4514 46.6731 20.4514 46.604 20.461C46.3689 20.3278 46.1094 20.2423 45.8405 20.2095H31.8425C30.0016 20.2095 28.2361 20.9322 26.9344 22.2186C25.6327 23.505 24.9014 25.2498 24.9014 27.069V59.0799C24.9014 60.8992 25.6327 62.6439 26.9344 63.9303C28.2361 65.2167 30.0016 65.9394 31.8425 65.9394H54.9796C56.8205 65.9394 58.586 65.2167 59.8877 63.9303C61.1895 62.6439 61.9208 60.8992 61.9208 59.0799V36.215C61.9208 36.215 61.9208 36.215 61.9208 36.0778ZM48.0385 28.0065L54.031 33.9285H50.3522C49.7386 33.9285 49.1501 33.6876 48.7162 33.2588C48.2823 32.83 48.0385 32.2484 48.0385 31.642V28.0065ZM57.2933 59.0799C57.2933 59.6863 57.0496 60.2679 56.6157 60.6967C56.1818 61.1255 55.5933 61.3664 54.9796 61.3664H31.8425C31.2289 61.3664 30.6404 61.1255 30.2065 60.6967C29.7726 60.2679 29.5288 59.6863 29.5288 59.0799V27.069C29.5288 26.4626 29.7726 25.881 30.2065 25.4522C30.6404 25.0234 31.2289 24.7825 31.8425 24.7825H43.4111V31.642C43.4111 33.4612 44.1424 35.206 45.4441 36.4924C46.7458 37.7788 48.5113 38.5015 50.3522 38.5015H57.2933V59.0799ZM50.3522 52.2204H36.4699C35.8563 52.2204 35.2678 52.4613 34.8339 52.8901C34.4 53.3189 34.1562 53.9005 34.1562 54.5069C34.1562 55.1134 34.4 55.6949 34.8339 56.1237C35.2678 56.5525 35.8563 56.7934 36.4699 56.7934H50.3522C50.9658 56.7934 51.5543 56.5525 51.9882 56.1237C52.4221 55.6949 52.6659 55.1134 52.6659 54.5069C52.6659 53.9005 52.4221 53.3189 51.9882 52.8901C51.5543 52.4613 50.9658 52.2204 50.3522 52.2204Z" fill="#003F7F"/>
</svg>
